<?xml version="1.0" encoding="UTF-8" standalone="no"?>
<!DOCTYPE svg PUBLIC "-//W3C//DTD SVG 1.1//EN"
 "http://www.w3.org/Graphics/SVG/1.1/DTD/svg11.dtd">
<!-- Generated by graphviz version 2.38.0 (20140413.2041)
 -->
<!-- Title: %3 Pages: 1 -->
<svg width="248pt" height="116pt"
 viewBox="0.00 0.00 248.44 116.00" xmlns="http://www.w3.org/2000/svg" xmlns:xlink="http://www.w3.org/1999/xlink">
<g id="graph0" class="graph" transform="scale(1 1) rotate(0) translate(4 112)">
<title>%3</title>
<polygon fill="white" stroke="none" points="-4,4 -4,-112 244.437,-112 244.437,4 -4,4"/>
<!-- Push Service -->
<g id="node1" class="node"><title>Push Service</title>
<ellipse fill="none" stroke="black" cx="120.54" cy="-90" rx="62.4187" ry="18"/>
<text text-anchor="middle" x="120.54" y="-85.8" font-family="OpenSans Bold" font-size="14.00">Push Service</text>
</g>
<!-- Browser -->
<g id="node2" class="node"><title>Browser</title>
<ellipse fill="none" stroke="black" cx="42.5401" cy="-18" rx="42.5802" ry="18"/>
<text text-anchor="middle" x="42.5401" y="-13.8" font-family="OpenSans Bold" font-size="14.00">Browser</text>
</g>
<!-- Push Service&#45;&gt;Browser -->
<g id="edge2" class="edge"><title>Push Service&#45;&gt;Browser</title>
<path fill="none" stroke="black" d="M83.3918,-75.3371C68.664,-66.4837 54.1477,-54.6849 44.559,-44.173"/>
<polygon fill="black" stroke="black" points="47.0312,-41.6646 38.0156,-36.0994 41.593,-46.0721 47.0312,-41.6646"/>
<text text-anchor="middle" x="55.0785" y="-60.6465" font-family="OpenSans Italic" font-size="14.00">3</text>
</g>
<!-- Website -->
<g id="node3" class="node"><title>Website</title>
<ellipse fill="none" stroke="black" cx="198.54" cy="-18" rx="41.7936" ry="18"/>
<text text-anchor="middle" x="198.54" y="-13.8" font-family="OpenSans Bold" font-size="14.00">Website</text>
</g>
<!-- Push Service&#45;&gt;Website -->
<!-- Browser&#45;&gt;Push Service -->
<g id="edge1" class="edge"><title>Browser&#45;&gt;Push Service</title>
<path fill="none" stroke="black" d="M74.7137,-29.7913C91.1271,-38.8666 107.938,-52.199 118.602,-63.9155"/>
<polygon fill="black" stroke="black" points="115.9,-66.1413 124.922,-71.6966 121.334,-61.7279 115.9,-66.1413"/>
<text text-anchor="middle" x="98.0767" y="-51.1831" font-family="OpenSans Italic" font-size="14.00">2</text>
</g>
<!-- Browser&#45;&gt;Website -->
<g id="edge3" class="edge"><title>Browser&#45;&gt;Website</title>
<path fill="none" stroke="black" d="M78.7979,-8.36629C103.327,-3.82237 127.856,-3.28368 152.385,-6.75025"/>
<polygon fill="black" stroke="black" points="152.09,-10.2484 162.524,-8.41118 153.221,-3.34048 152.09,-10.2484"/>
<text text-anchor="middle" x="116.873" y="-7.30011" font-family="OpenSans Italic" font-size="14.00">4</text>
</g>
<!-- Website&#45;&gt;Push Service -->
<!-- Website&#45;&gt;Browser -->
<g id="edge4" class="edge"><title>Website&#45;&gt;Browser</title>
<path fill="none" stroke="black" d="M162.524,-27.5888C137.995,-32.159 113.466,-32.724 88.9366,-29.2838"/>
<polygon fill="black" stroke="black" points="89.2303,-25.7856 78.7979,-27.6337 88.1058,-32.6947 89.2303,-25.7856"/>
<text text-anchor="middle" x="116.663" y="-34.3" font-family="OpenSans Italic" font-size="14.00">1</text>
</g>
</g>
</svg>
