<?xml version="1.0" encoding="UTF-8" standalone="no"?>
<!DOCTYPE svg PUBLIC "-//W3C//DTD SVG 1.1//EN"
 "http://www.w3.org/Graphics/SVG/1.1/DTD/svg11.dtd">
<!-- Generated by graphviz version 2.38.0 (20140413.2041)
 -->
<!-- Title: %3 Pages: 1 -->
<svg width="248pt" height="116pt"
 viewBox="0.00 0.00 248.44 116.00" xmlns="http://www.w3.org/2000/svg" xmlns:xlink="http://www.w3.org/1999/xlink">
<g id="graph0" class="graph" transform="scale(1 1) rotate(0) translate(4 112)">
<title>%3</title>
<polygon fill="white" stroke="none" points="-4,4 -4,-112 244.437,-112 244.437,4 -4,4"/>
<!-- Push Service -->
<g id="node1" class="node"><title>Push Service</title>
<ellipse fill="none" stroke="black" cx="120.54" cy="-90" rx="62.4187" ry="18"/>
<text text-anchor="middle" x="120.54" y="-85.8" font-family="OpenSans Bold" font-size="14.00">Push Service</text>
</g>
<!-- Browser -->
<g id="node2" class="node"><title>Browser</title>
<ellipse fill="none" stroke="black" cx="42.5401" cy="-18" rx="42.5802" ry="18"/>
<text text-anchor="middle" x="42.5401" y="-13.8" font-family="OpenSans Bold" font-size="14.00">Browser</text>
</g>
<!-- Push Service&#45;&gt;Browser -->
<g id="edge2" class="edge"><title>Push Service&#45;&gt;Browser</title>
<path fill="none" stroke="black" stroke-dasharray="5,2" d="M102.449,-72.7646C92.0646,-63.4451 78.8718,-51.6054 67.5114,-41.4102"/>
<polygon fill="black" stroke="black" points="69.7764,-38.7401 59.9962,-34.6658 65.101,-43.9498 69.7764,-38.7401"/>
</g>
<!-- Website -->
<g id="node3" class="node"><title>Website</title>
<ellipse fill="none" stroke="black" cx="198.54" cy="-18" rx="41.7936" ry="18"/>
<text text-anchor="middle" x="198.54" y="-13.8" font-family="OpenSans Bold" font-size="14.00">Website</text>
</g>
<!-- Website&#45;&gt;Push Service -->
<g id="edge1" class="edge"><title>Website&#45;&gt;Push Service</title>
<path fill="none" stroke="black" d="M181.35,-34.4268C171.061,-43.6604 157.787,-55.5729 146.268,-65.9112"/>
<polygon fill="black" stroke="black" points="143.736,-63.4807 138.631,-72.7646 148.411,-68.6904 143.736,-63.4807"/>
</g>
</g>
</svg>
